<svg width="24" height="24" viewBox="0 0 24 24" fill="none" xmlns="http://www.w3.org/2000/svg">
<path d="M15.7958 15.8571C18.2152 11.8496 17.9111 12.3496 17.9808 12.2451C18.8617 10.9336 19.3273 9.39009 19.3273 7.78125C19.3273 3.51469 16.0473 0 12 0C7.96591 0 4.6727 3.50775 4.6727 7.78125C4.6727 9.38907 5.14804 10.973 6.05778 12.3022L8.2041 15.8572C5.90934 16.2293 2.00822 17.3387 2.00822 19.7812C2.00822 20.6716 2.5588 21.9405 5.18171 22.9293C7.01317 23.6197 9.43461 24 12 24C16.7972 24 21.9918 22.5716 21.9918 19.7812C21.9918 17.3383 18.0952 16.2301 15.7958 15.8571ZM7.1706 11.5287C7.16329 11.5166 7.15563 11.5047 7.14765 11.4931C6.39062 10.3938 6.00494 9.09099 6.00494 7.78125C6.00494 4.26479 8.68744 1.40625 12 1.40625C15.3057 1.40625 17.9951 4.26605 17.9951 7.78125C17.9951 9.09309 17.6166 10.3517 16.9006 11.4221C16.8364 11.5114 17.1712 10.9624 12 19.5276L7.1706 11.5287ZM12 22.5937C6.76014 22.5937 3.34046 20.968 3.34046 19.7812C3.34046 18.9836 5.09759 17.6721 8.99128 17.1609L11.4382 21.2139C11.4984 21.3136 11.5814 21.3956 11.6796 21.4524C11.7778 21.5093 11.888 21.5391 12 21.5391C12.1119 21.5391 12.2221 21.5093 12.3203 21.4524C12.4185 21.3956 12.5015 21.3136 12.5617 21.2139L15.0086 17.1609C18.9024 17.6721 20.6596 18.9836 20.6596 19.7812C20.6596 20.9579 17.2707 22.5937 12 22.5937Z" fill="white"/>
<path d="M12 4.26562C10.1635 4.26562 8.6694 5.84273 8.6694 7.78125C8.6694 9.71976 10.1635 11.2969 12 11.2969C13.8365 11.2969 15.3306 9.71976 15.3306 7.78125C15.3306 5.84273 13.8365 4.26562 12 4.26562ZM12 9.89063C10.8981 9.89063 10.0016 8.94436 10.0016 7.78125C10.0016 6.61814 10.8981 5.67188 12 5.67188C13.1018 5.67188 13.9983 6.61814 13.9983 7.78125C13.9983 8.94436 13.1018 9.89063 12 9.89063Z" fill="white"/>
</svg>
