<svg width="831" height="159" viewBox="0 0 831 159" fill="none" xmlns="http://www.w3.org/2000/svg">
<mask id="path-1-outside-1_15_46" maskUnits="userSpaceOnUse" x="226.957" y="51.5" width="601" height="56" fill="black">
<rect fill="white" x="226.957" y="51.5" width="601" height="56"/>
<path d="M294.957 79.25C294.957 82.9 294.382 86.325 293.232 89.525C292.082 92.675 290.432 95.45 288.282 97.85C286.182 100.25 283.657 102.125 280.707 103.475C277.757 104.825 274.482 105.5 270.882 105.5H253.407C249.757 105.5 246.457 104.825 243.507 103.475C240.557 102.125 238.007 100.25 235.857 97.85C233.757 95.45 232.132 92.675 230.982 89.525C229.832 86.325 229.257 82.9 229.257 79.25C229.257 75.65 229.832 72.275 230.982 69.125C232.132 65.925 233.757 63.125 235.857 60.725C238.007 58.275 240.557 56.375 243.507 55.025C246.457 53.675 249.757 53 253.407 53H270.882C274.482 53 277.757 53.675 280.707 55.025C283.657 56.375 286.182 58.275 288.282 60.725C290.432 63.125 292.082 65.925 293.232 69.125C294.382 72.275 294.957 75.65 294.957 79.25ZM287.457 79.25C287.457 75.8 286.782 72.65 285.432 69.8C284.132 66.95 282.232 64.7 279.732 63.05C277.282 61.35 274.332 60.5 270.882 60.5H253.407C249.957 60.5 246.982 61.35 244.482 63.05C242.032 64.7 240.132 66.95 238.782 69.8C237.432 72.65 236.757 75.8 236.757 79.25C236.757 82.7 237.432 85.85 238.782 88.7C240.132 91.5 242.032 93.75 244.482 95.45C246.982 97.15 249.957 98 253.407 98H270.882C274.332 98 277.282 97.15 279.732 95.45C282.232 93.75 284.132 91.5 285.432 88.7C286.782 85.85 287.457 82.7 287.457 79.25ZM352.172 105.5H341.972L330.272 94.325H315.047V86.9H335.822C337.922 86.9 339.697 86.15 341.147 84.65C342.647 83.1 343.397 81.3 343.397 79.25C343.397 77.15 342.647 75.375 341.147 73.925C339.697 72.425 337.922 71.675 335.822 71.675H311.147V105.5H303.647V64.25H335.822C338.622 64.25 341.147 64.925 343.397 66.275C345.647 67.625 347.447 69.45 348.797 71.75C350.147 74 350.822 76.5 350.822 79.25C350.822 81.5 350.347 83.625 349.397 85.625C348.497 87.575 347.222 89.275 345.572 90.725C343.972 92.125 342.122 93.125 340.022 93.725L352.172 105.5ZM403.176 105.5H376.551C372.701 105.5 369.326 104.575 366.426 102.725C363.526 100.875 361.276 98.375 359.676 95.225C358.076 92.075 357.276 88.575 357.276 84.725C357.276 80.875 358.076 77.4 359.676 74.3C361.276 71.2 363.526 68.725 366.426 66.875C369.326 65.025 372.701 64.1 376.551 64.1H403.176V71.675H376.551C374.151 71.675 372.076 72.275 370.326 73.475C368.576 74.625 367.226 76.175 366.276 78.125C365.326 80.075 364.851 82.275 364.851 84.725C364.851 87.175 365.326 89.4 366.276 91.4C367.226 93.4 368.576 95 370.326 96.2C372.076 97.35 374.151 97.925 376.551 97.925H395.601V88.4H374.076V80.825H403.176V105.5ZM459.88 105.5H452.38V94.175H423.505V86.525H452.38V71.675H432.88C430.43 71.675 428.205 72.275 426.205 73.475C424.205 74.675 422.605 76.275 421.405 78.275C420.205 80.225 419.605 82.425 419.605 84.875V105.5H412.03V84.875C412.03 82.025 412.555 79.35 413.605 76.85C414.705 74.3 416.205 72.075 418.105 70.175C420.055 68.275 422.28 66.8 424.78 65.75C427.33 64.65 430.03 64.1 432.88 64.1H459.88V105.5ZM508.588 105.5C508.588 102.2 507.938 99.05 506.637 96.05C505.388 93 503.688 90.175 501.538 87.575C499.388 84.975 496.988 82.625 494.338 80.525C491.688 78.425 488.963 76.675 486.163 75.275C483.413 73.875 480.763 72.875 478.213 72.275V105.5H470.713V64.25H474.763V64.325C477.463 64.475 480.313 65.075 483.313 66.125C486.363 67.125 489.413 68.525 492.463 70.325C495.513 72.125 498.413 74.225 501.163 76.625C503.963 79.025 506.438 81.7 508.588 84.65V64.25H516.088V105.5H508.588ZM534.314 105.5H526.889V64.25H534.314V105.5ZM590.352 93.35C590.352 95.6 589.802 97.65 588.702 99.5C587.652 101.3 586.202 102.75 584.352 103.85C582.502 104.95 580.452 105.5 578.202 105.5H543.177V98H578.202C579.502 98 580.602 97.55 581.502 96.65C582.452 95.75 582.927 94.65 582.927 93.35C582.927 92.05 582.452 90.95 581.502 90.05C580.602 89.1 579.502 88.625 578.202 88.625H555.252C553.052 88.625 551.027 88.075 549.177 86.975C547.377 85.875 545.927 84.4 544.827 82.55C543.727 80.7 543.177 78.65 543.177 76.4C543.177 74.2 543.727 72.175 544.827 70.325C545.927 68.475 547.377 67 549.177 65.9C551.027 64.8 553.052 64.25 555.252 64.25H587.577V71.675H555.252C554.002 71.675 552.902 72.15 551.952 73.1C551.052 74 550.602 75.1 550.602 76.4C550.602 77.7 551.052 78.825 551.952 79.775C552.902 80.675 554.002 81.125 555.252 81.125H578.202C580.452 81.125 582.502 81.675 584.352 82.775C586.202 83.875 587.652 85.35 588.702 87.2C589.802 89.05 590.352 91.1 590.352 93.35ZM645.329 105.5H637.829V94.175H608.954V86.525H637.829V71.675H618.329C615.879 71.675 613.654 72.275 611.654 73.475C609.654 74.675 608.054 76.275 606.854 78.275C605.654 80.225 605.054 82.425 605.054 84.875V105.5H597.479V84.875C597.479 82.025 598.004 79.35 599.054 76.85C600.154 74.3 601.654 72.075 603.554 70.175C605.504 68.275 607.729 66.8 610.229 65.75C612.779 64.65 615.479 64.1 618.329 64.1H645.329V105.5ZM678.962 105.5H671.462V71.675H651.587V64.25H698.762V71.675H678.962V105.5ZM712.439 105.5H705.014V64.25H712.439V105.5ZM771.852 84.8C771.852 88.6 771.052 92.075 769.452 95.225C767.902 98.325 765.702 100.825 762.852 102.725C760.002 104.575 756.677 105.5 752.877 105.5H739.827C736.027 105.5 732.677 104.575 729.777 102.725C726.927 100.825 724.702 98.325 723.102 95.225C721.552 92.075 720.777 88.6 720.777 84.8C720.777 81 721.552 77.55 723.102 74.45C724.702 71.35 726.927 68.875 729.777 67.025C732.677 65.175 736.027 64.25 739.827 64.25H752.877C756.677 64.25 760.002 65.175 762.852 67.025C765.702 68.875 767.902 71.35 769.452 74.45C771.052 77.55 771.852 81 771.852 84.8ZM764.352 84.8C764.352 82.4 763.902 80.2 763.002 78.2C762.102 76.2 760.777 74.625 759.027 73.475C757.327 72.275 755.277 71.675 752.877 71.675H739.827C737.427 71.675 735.352 72.275 733.602 73.475C731.902 74.625 730.577 76.2 729.627 78.2C728.727 80.2 728.277 82.4 728.277 84.8C728.277 87.2 728.727 89.4 729.627 91.4C730.577 93.4 731.902 95 733.602 96.2C735.352 97.4 737.427 98 739.827 98H752.877C755.277 98 757.327 97.4 759.027 96.2C760.777 95 762.102 93.4 763.002 91.4C763.902 89.4 764.352 87.2 764.352 84.8ZM818.036 105.5C818.036 102.2 817.386 99.05 816.086 96.05C814.836 93 813.136 90.175 810.986 87.575C808.836 84.975 806.436 82.625 803.786 80.525C801.136 78.425 798.411 76.675 795.611 75.275C792.861 73.875 790.211 72.875 787.661 72.275V105.5H780.161V64.25H784.211V64.325C786.911 64.475 789.761 65.075 792.761 66.125C795.811 67.125 798.861 68.525 801.911 70.325C804.961 72.125 807.861 74.225 810.611 76.625C813.411 79.025 815.886 81.7 818.036 84.65V64.25H825.536V105.5H818.036Z"/>
</mask>
<path d="M294.957 79.25C294.957 82.9 294.382 86.325 293.232 89.525C292.082 92.675 290.432 95.45 288.282 97.85C286.182 100.25 283.657 102.125 280.707 103.475C277.757 104.825 274.482 105.5 270.882 105.5H253.407C249.757 105.5 246.457 104.825 243.507 103.475C240.557 102.125 238.007 100.25 235.857 97.85C233.757 95.45 232.132 92.675 230.982 89.525C229.832 86.325 229.257 82.9 229.257 79.25C229.257 75.65 229.832 72.275 230.982 69.125C232.132 65.925 233.757 63.125 235.857 60.725C238.007 58.275 240.557 56.375 243.507 55.025C246.457 53.675 249.757 53 253.407 53H270.882C274.482 53 277.757 53.675 280.707 55.025C283.657 56.375 286.182 58.275 288.282 60.725C290.432 63.125 292.082 65.925 293.232 69.125C294.382 72.275 294.957 75.65 294.957 79.25ZM287.457 79.25C287.457 75.8 286.782 72.65 285.432 69.8C284.132 66.95 282.232 64.7 279.732 63.05C277.282 61.35 274.332 60.5 270.882 60.5H253.407C249.957 60.5 246.982 61.35 244.482 63.05C242.032 64.7 240.132 66.95 238.782 69.8C237.432 72.65 236.757 75.8 236.757 79.25C236.757 82.7 237.432 85.85 238.782 88.7C240.132 91.5 242.032 93.75 244.482 95.45C246.982 97.15 249.957 98 253.407 98H270.882C274.332 98 277.282 97.15 279.732 95.45C282.232 93.75 284.132 91.5 285.432 88.7C286.782 85.85 287.457 82.7 287.457 79.25ZM352.172 105.5H341.972L330.272 94.325H315.047V86.9H335.822C337.922 86.9 339.697 86.15 341.147 84.65C342.647 83.1 343.397 81.3 343.397 79.25C343.397 77.15 342.647 75.375 341.147 73.925C339.697 72.425 337.922 71.675 335.822 71.675H311.147V105.5H303.647V64.25H335.822C338.622 64.25 341.147 64.925 343.397 66.275C345.647 67.625 347.447 69.45 348.797 71.75C350.147 74 350.822 76.5 350.822 79.25C350.822 81.5 350.347 83.625 349.397 85.625C348.497 87.575 347.222 89.275 345.572 90.725C343.972 92.125 342.122 93.125 340.022 93.725L352.172 105.5ZM403.176 105.5H376.551C372.701 105.5 369.326 104.575 366.426 102.725C363.526 100.875 361.276 98.375 359.676 95.225C358.076 92.075 357.276 88.575 357.276 84.725C357.276 80.875 358.076 77.4 359.676 74.3C361.276 71.2 363.526 68.725 366.426 66.875C369.326 65.025 372.701 64.1 376.551 64.1H403.176V71.675H376.551C374.151 71.675 372.076 72.275 370.326 73.475C368.576 74.625 367.226 76.175 366.276 78.125C365.326 80.075 364.851 82.275 364.851 84.725C364.851 87.175 365.326 89.4 366.276 91.4C367.226 93.4 368.576 95 370.326 96.2C372.076 97.35 374.151 97.925 376.551 97.925H395.601V88.4H374.076V80.825H403.176V105.5ZM459.88 105.5H452.38V94.175H423.505V86.525H452.38V71.675H432.88C430.43 71.675 428.205 72.275 426.205 73.475C424.205 74.675 422.605 76.275 421.405 78.275C420.205 80.225 419.605 82.425 419.605 84.875V105.5H412.03V84.875C412.03 82.025 412.555 79.35 413.605 76.85C414.705 74.3 416.205 72.075 418.105 70.175C420.055 68.275 422.28 66.8 424.78 65.75C427.33 64.65 430.03 64.1 432.88 64.1H459.88V105.5ZM508.588 105.5C508.588 102.2 507.938 99.05 506.637 96.05C505.388 93 503.688 90.175 501.538 87.575C499.388 84.975 496.988 82.625 494.338 80.525C491.688 78.425 488.963 76.675 486.163 75.275C483.413 73.875 480.763 72.875 478.213 72.275V105.5H470.713V64.25H474.763V64.325C477.463 64.475 480.313 65.075 483.313 66.125C486.363 67.125 489.413 68.525 492.463 70.325C495.513 72.125 498.413 74.225 501.163 76.625C503.963 79.025 506.438 81.7 508.588 84.65V64.25H516.088V105.5H508.588ZM534.314 105.5H526.889V64.25H534.314V105.5ZM590.352 93.35C590.352 95.6 589.802 97.65 588.702 99.5C587.652 101.3 586.202 102.75 584.352 103.85C582.502 104.95 580.452 105.5 578.202 105.5H543.177V98H578.202C579.502 98 580.602 97.55 581.502 96.65C582.452 95.75 582.927 94.65 582.927 93.35C582.927 92.05 582.452 90.95 581.502 90.05C580.602 89.1 579.502 88.625 578.202 88.625H555.252C553.052 88.625 551.027 88.075 549.177 86.975C547.377 85.875 545.927 84.4 544.827 82.55C543.727 80.7 543.177 78.65 543.177 76.4C543.177 74.2 543.727 72.175 544.827 70.325C545.927 68.475 547.377 67 549.177 65.9C551.027 64.8 553.052 64.25 555.252 64.25H587.577V71.675H555.252C554.002 71.675 552.902 72.15 551.952 73.1C551.052 74 550.602 75.1 550.602 76.4C550.602 77.7 551.052 78.825 551.952 79.775C552.902 80.675 554.002 81.125 555.252 81.125H578.202C580.452 81.125 582.502 81.675 584.352 82.775C586.202 83.875 587.652 85.35 588.702 87.2C589.802 89.05 590.352 91.1 590.352 93.35ZM645.329 105.5H637.829V94.175H608.954V86.525H637.829V71.675H618.329C615.879 71.675 613.654 72.275 611.654 73.475C609.654 74.675 608.054 76.275 606.854 78.275C605.654 80.225 605.054 82.425 605.054 84.875V105.5H597.479V84.875C597.479 82.025 598.004 79.35 599.054 76.85C600.154 74.3 601.654 72.075 603.554 70.175C605.504 68.275 607.729 66.8 610.229 65.75C612.779 64.65 615.479 64.1 618.329 64.1H645.329V105.5ZM678.962 105.5H671.462V71.675H651.587V64.25H698.762V71.675H678.962V105.5ZM712.439 105.5H705.014V64.25H712.439V105.5ZM771.852 84.8C771.852 88.6 771.052 92.075 769.452 95.225C767.902 98.325 765.702 100.825 762.852 102.725C760.002 104.575 756.677 105.5 752.877 105.5H739.827C736.027 105.5 732.677 104.575 729.777 102.725C726.927 100.825 724.702 98.325 723.102 95.225C721.552 92.075 720.777 88.6 720.777 84.8C720.777 81 721.552 77.55 723.102 74.45C724.702 71.35 726.927 68.875 729.777 67.025C732.677 65.175 736.027 64.25 739.827 64.25H752.877C756.677 64.25 760.002 65.175 762.852 67.025C765.702 68.875 767.902 71.35 769.452 74.45C771.052 77.55 771.852 81 771.852 84.8ZM764.352 84.8C764.352 82.4 763.902 80.2 763.002 78.2C762.102 76.2 760.777 74.625 759.027 73.475C757.327 72.275 755.277 71.675 752.877 71.675H739.827C737.427 71.675 735.352 72.275 733.602 73.475C731.902 74.625 730.577 76.2 729.627 78.2C728.727 80.2 728.277 82.4 728.277 84.8C728.277 87.2 728.727 89.4 729.627 91.4C730.577 93.4 731.902 95 733.602 96.2C735.352 97.4 737.427 98 739.827 98H752.877C755.277 98 757.327 97.4 759.027 96.2C760.777 95 762.102 93.4 763.002 91.4C763.902 89.4 764.352 87.2 764.352 84.8ZM818.036 105.5C818.036 102.2 817.386 99.05 816.086 96.05C814.836 93 813.136 90.175 810.986 87.575C808.836 84.975 806.436 82.625 803.786 80.525C801.136 78.425 798.411 76.675 795.611 75.275C792.861 73.875 790.211 72.875 787.661 72.275V105.5H780.161V64.25H784.211V64.325C786.911 64.475 789.761 65.075 792.761 66.125C795.811 67.125 798.861 68.525 801.911 70.325C804.961 72.125 807.861 74.225 810.611 76.625C813.411 79.025 815.886 81.7 818.036 84.65V64.25H825.536V105.5H818.036Z" fill="#2664AF"/>
<path d="M293.232 89.525L294.641 90.0394L294.644 90.0323L293.232 89.525ZM288.282 97.85L287.165 96.8491L287.159 96.8557L287.153 96.8622L288.282 97.85ZM235.857 97.85L234.728 98.8378L234.734 98.8443L234.74 98.8509L235.857 97.85ZM230.982 89.525L229.57 90.0323L229.573 90.0394L230.982 89.525ZM230.982 69.125L232.391 69.6394L232.394 69.6323L230.982 69.125ZM235.857 60.725L234.73 59.7356L234.728 59.7372L235.857 60.725ZM288.282 60.725L287.143 61.7012L287.154 61.7136L287.165 61.7259L288.282 60.725ZM293.232 69.125L291.82 69.6323L291.823 69.6394L293.232 69.125ZM285.432 69.8L284.067 70.4225L284.072 70.4324L284.076 70.4421L285.432 69.8ZM279.732 63.05L278.877 64.2824L278.891 64.2923L278.906 64.3019L279.732 63.05ZM244.482 63.05L245.32 64.2942L245.325 64.2904L244.482 63.05ZM238.782 69.8L240.138 70.4421L240.138 70.4421L238.782 69.8ZM238.782 88.7L237.426 89.3421L237.431 89.3514L238.782 88.7ZM244.482 95.45L243.627 96.6824L243.633 96.6864L243.639 96.6904L244.482 95.45ZM279.732 95.45L278.889 94.2096L278.883 94.2136L278.877 94.2176L279.732 95.45ZM285.432 88.7L284.076 88.0579L284.072 88.0683L285.432 88.7ZM294.957 79.25H293.457C293.457 82.7398 292.908 85.992 291.82 89.0177L293.232 89.525L294.644 90.0323C295.856 86.658 296.457 83.0602 296.457 79.25H294.957ZM293.232 89.525L291.823 89.0106C290.736 91.9888 289.182 94.597 287.165 96.8491L288.282 97.85L289.399 98.8509C291.682 96.303 293.428 93.3612 294.641 90.0394L293.232 89.525ZM288.282 97.85L287.153 96.8622C285.195 99.0997 282.843 100.848 280.083 102.111L280.707 103.475L281.331 104.839C284.471 103.402 287.169 101.4 289.411 98.8378L288.282 97.85ZM280.707 103.475L280.083 102.111C277.349 103.362 274.29 104 270.882 104V105.5V107C274.674 107 278.165 106.288 281.331 104.839L280.707 103.475ZM270.882 105.5V104H253.407V105.5V107H270.882V105.5ZM253.407 105.5V104C249.945 104 246.862 103.361 244.131 102.111L243.507 103.475L242.883 104.839C246.052 106.289 249.569 107 253.407 107V105.5ZM243.507 103.475L244.131 102.111C241.367 100.846 238.986 99.0944 236.974 96.8491L235.857 97.85L234.74 98.8509C237.028 101.406 239.747 103.404 242.883 104.839L243.507 103.475ZM235.857 97.85L236.986 96.8622C235.014 94.6085 233.481 91.996 232.391 89.0106L230.982 89.525L229.573 90.0394C230.783 93.354 232.5 96.2915 234.728 98.8378L235.857 97.85ZM230.982 89.525L232.394 89.0177C231.306 85.992 230.757 82.7398 230.757 79.25H229.257H227.757C227.757 83.0602 228.358 86.658 229.57 90.0323L230.982 89.525ZM229.257 79.25H230.757C230.757 75.8125 231.306 72.6128 232.391 69.6394L230.982 69.125L229.573 68.6106C228.359 71.9372 227.757 75.4875 227.757 79.25H229.257ZM230.982 69.125L232.394 69.6323C233.484 66.5969 235.017 63.9625 236.986 61.7128L235.857 60.725L234.728 59.7372C232.497 62.2875 230.78 65.2531 229.57 68.6177L230.982 69.125ZM235.857 60.725L236.984 61.7144C238.996 59.4225 241.374 57.6505 244.131 56.389L243.507 55.025L242.883 53.661C239.74 55.0995 237.018 57.1275 234.73 59.7356L235.857 60.725ZM243.507 55.025L244.131 56.389C246.862 55.1392 249.945 54.5 253.407 54.5V53V51.5C249.569 51.5 246.052 52.2108 242.883 53.661L243.507 55.025ZM253.407 53V54.5H270.882V53V51.5H253.407V53ZM270.882 53V54.5C274.29 54.5 277.349 55.138 280.083 56.389L280.707 55.025L281.331 53.661C278.165 52.212 274.674 51.5 270.882 51.5V53ZM280.707 55.025L280.083 56.389C282.836 57.649 285.185 59.4171 287.143 61.7012L288.282 60.725L289.421 59.7488C287.179 57.1329 284.478 55.101 281.331 53.661L280.707 55.025ZM288.282 60.725L287.165 61.7259C289.179 63.974 290.732 66.604 291.82 69.6323L293.232 69.125L294.644 68.6177C293.432 65.2459 291.685 62.276 289.399 59.7241L288.282 60.725ZM293.232 69.125L291.823 69.6394C292.909 72.6128 293.457 75.8125 293.457 79.25H294.957H296.457C296.457 75.4875 295.856 71.9372 294.641 68.6106L293.232 69.125ZM287.457 79.25H288.957C288.957 75.5991 288.241 72.2269 286.788 69.1579L285.432 69.8L284.076 70.4421C285.323 73.0731 285.957 76.0009 285.957 79.25H287.457ZM285.432 69.8L286.797 69.1775C285.386 66.0836 283.304 63.6105 280.558 61.7981L279.732 63.05L278.906 64.3019C281.16 65.7895 282.879 67.8164 284.067 70.4225L285.432 69.8ZM279.732 63.05L280.587 61.8176C277.848 59.9172 274.588 59 270.882 59V60.5V62C274.076 62 276.716 62.7828 278.877 64.2824L279.732 63.05ZM270.882 60.5V59H253.407V60.5V62H270.882V60.5ZM253.407 60.5V59C249.7 59 246.421 59.9174 243.639 61.8096L244.482 63.05L245.325 64.2904C247.543 62.7826 250.214 62 253.407 62V60.5ZM244.482 63.05L243.644 61.8058C240.955 63.6166 238.884 66.0814 237.426 69.1579L238.782 69.8L240.138 70.4421C241.38 67.8186 243.109 65.7834 245.32 64.2942L244.482 63.05ZM238.782 69.8L237.426 69.1579C235.973 72.2269 235.257 75.5991 235.257 79.25H236.757H238.257C238.257 76.0009 238.891 73.0731 240.138 70.4421L238.782 69.8ZM236.757 79.25H235.257C235.257 82.9009 235.973 86.2731 237.426 89.3421L238.782 88.7L240.138 88.0579C238.891 85.4269 238.257 82.4991 238.257 79.25H236.757ZM238.782 88.7L237.431 89.3514C238.888 92.3744 240.955 94.8284 243.627 96.6824L244.482 95.45L245.337 94.2176C243.109 92.6716 241.376 90.6256 240.133 88.0486L238.782 88.7ZM244.482 95.45L243.639 96.6904C246.421 98.5826 249.7 99.5 253.407 99.5V98V96.5C250.214 96.5 247.543 95.7174 245.325 94.2096L244.482 95.45ZM253.407 98V99.5H270.882V98V96.5H253.407V98ZM270.882 98V99.5C274.588 99.5 277.848 98.5828 280.587 96.6824L279.732 95.45L278.877 94.2176C276.716 95.7172 274.076 96.5 270.882 96.5V98ZM279.732 95.45L280.575 96.6904C283.305 94.8346 285.381 92.3721 286.793 89.3317L285.432 88.7L284.072 88.0683C282.883 90.6279 281.159 92.6654 278.889 94.2096L279.732 95.45ZM285.432 88.7L286.788 89.3421C288.241 86.2731 288.957 82.9009 288.957 79.25H287.457H285.957C285.957 82.4991 285.323 85.4269 284.076 88.0579L285.432 88.7ZM352.172 105.5V107H355.875L353.216 104.423L352.172 105.5ZM341.972 105.5L340.936 106.585L341.371 107H341.972V105.5ZM330.272 94.325L331.308 93.2403L330.873 92.825H330.272V94.325ZM315.047 94.325H313.547V95.825H315.047V94.325ZM315.047 86.9V85.4H313.547V86.9H315.047ZM341.147 84.65L340.069 83.6069L340.069 83.6075L341.147 84.65ZM341.147 73.925L340.069 74.9675L340.086 74.9858L340.105 75.0035L341.147 73.925ZM311.147 71.675V70.175H309.647V71.675H311.147ZM311.147 105.5V107H312.647V105.5H311.147ZM303.647 105.5H302.147V107H303.647V105.5ZM303.647 64.25V62.75H302.147V64.25H303.647ZM343.397 66.275L344.169 64.9888L344.169 64.9888L343.397 66.275ZM348.797 71.75L347.503 72.5093L347.507 72.5155L347.511 72.5217L348.797 71.75ZM349.397 85.625L348.042 84.9814L348.039 84.9889L348.035 84.9964L349.397 85.625ZM345.572 90.725L346.56 91.8539L346.562 91.8517L345.572 90.725ZM340.022 93.725L339.61 92.2827L337.114 92.9958L338.978 94.8022L340.022 93.725ZM352.172 105.5V104H341.972V105.5V107H352.172V105.5ZM341.972 105.5L343.008 104.415L331.308 93.2403L330.272 94.325L329.236 95.4097L340.936 106.585L341.972 105.5ZM330.272 94.325V92.825H315.047V94.325V95.825H330.272V94.325ZM315.047 94.325H316.547V86.9H315.047H313.547V94.325H315.047ZM315.047 86.9V88.4H335.822V86.9V85.4H315.047V86.9ZM335.822 86.9V88.4C338.326 88.4 340.491 87.4871 342.226 85.6925L341.147 84.65L340.069 83.6075C338.903 84.8129 337.518 85.4 335.822 85.4V86.9ZM341.147 84.65L342.225 85.6931C343.98 83.8795 344.897 81.7112 344.897 79.25H343.397H341.897C341.897 80.8888 341.314 82.3205 340.069 83.6069L341.147 84.65ZM343.397 79.25H344.897C344.897 76.7464 343.984 74.5812 342.19 72.8465L341.147 73.925L340.105 75.0035C341.31 76.1688 341.897 77.5536 341.897 79.25H343.397ZM341.147 73.925L342.226 72.8825C340.491 71.0879 338.326 70.175 335.822 70.175V71.675V73.175C337.518 73.175 338.903 73.7621 340.069 74.9675L341.147 73.925ZM335.822 71.675V70.175H311.147V71.675V73.175H335.822V71.675ZM311.147 71.675H309.647V105.5H311.147H312.647V71.675H311.147ZM311.147 105.5V104H303.647V105.5V107H311.147V105.5ZM303.647 105.5H305.147V64.25H303.647H302.147V105.5H303.647ZM303.647 64.25V65.75H335.822V64.25V62.75H303.647V64.25ZM335.822 64.25V65.75C338.369 65.75 340.624 66.3606 342.625 67.5612L343.397 66.275L344.169 64.9888C341.67 63.4894 338.875 62.75 335.822 62.75V64.25ZM343.397 66.275L342.625 67.5612C344.656 68.7799 346.278 70.4222 347.503 72.5093L348.797 71.75L350.091 70.9907C348.616 68.4778 346.638 66.4701 344.169 64.9888L343.397 66.275ZM348.797 71.75L347.511 72.5217C348.714 74.5272 349.322 76.7582 349.322 79.25H350.822H352.322C352.322 76.2418 351.58 73.4728 350.083 70.9783L348.797 71.75ZM350.822 79.25H349.322C349.322 81.2811 348.895 83.1859 348.042 84.9814L349.397 85.625L350.752 86.2686C351.799 84.0641 352.322 81.7189 352.322 79.25H350.822ZM349.397 85.625L348.035 84.9964C347.225 86.7518 346.078 88.2833 344.582 89.5983L345.572 90.725L346.562 91.8517C348.366 90.2667 349.769 88.3982 350.759 86.2536L349.397 85.625ZM345.572 90.725L344.584 89.5961C343.155 90.8465 341.503 91.7418 339.61 92.2827L340.022 93.725L340.434 95.1673C342.741 94.5082 344.789 93.4035 346.56 91.8539L345.572 90.725ZM340.022 93.725L338.978 94.8022L351.128 106.577L352.172 105.5L353.216 104.423L341.066 92.6478L340.022 93.725ZM403.176 105.5V107H404.676V105.5H403.176ZM366.426 102.725L367.232 101.46L367.232 101.46L366.426 102.725ZM359.676 95.225L361.013 94.5457L361.013 94.5457L359.676 95.225ZM359.676 74.3L358.343 73.612L358.343 73.612L359.676 74.3ZM366.426 66.875L365.619 65.6104L365.619 65.6104L366.426 66.875ZM403.176 64.1H404.676V62.6H403.176V64.1ZM403.176 71.675V73.175H404.676V71.675H403.176ZM370.326 73.475L371.149 74.7286L371.162 74.7204L371.174 74.7121L370.326 73.475ZM366.276 78.125L367.624 78.782L367.624 78.782L366.276 78.125ZM366.276 91.4L367.631 90.7564L367.631 90.7564L366.276 91.4ZM370.326 96.2L369.477 97.4371L369.489 97.4454L369.502 97.4536L370.326 96.2ZM395.601 97.925V99.425H397.101V97.925H395.601ZM395.601 88.4H397.101V86.9H395.601V88.4ZM374.076 88.4H372.576V89.9H374.076V88.4ZM374.076 80.825V79.325H372.576V80.825H374.076ZM403.176 80.825H404.676V79.325H403.176V80.825ZM403.176 105.5V104H376.551V105.5V107H403.176V105.5ZM376.551 105.5V104C372.951 104 369.863 103.139 367.232 101.46L366.426 102.725L365.619 103.99C368.788 106.011 372.45 107 376.551 107V105.5ZM366.426 102.725L367.232 101.46C364.565 99.7586 362.495 97.4635 361.013 94.5457L359.676 95.225L358.338 95.9043C360.056 99.2865 362.487 101.991 365.619 103.99L366.426 102.725ZM359.676 95.225L361.013 94.5457C359.529 91.6246 358.776 88.3605 358.776 84.725H357.276H355.776C355.776 88.7895 356.622 92.5254 358.338 95.9043L359.676 95.225ZM357.276 84.725H358.776C358.776 81.0891 359.529 77.8539 361.009 74.988L359.676 74.3L358.343 73.612C356.622 76.9461 355.776 80.6609 355.776 84.725H357.276ZM359.676 74.3L361.009 74.988C362.489 72.1197 364.559 69.8451 367.232 68.1396L366.426 66.875L365.619 65.6104C362.492 67.6049 360.062 70.2803 358.343 73.612L359.676 74.3ZM366.426 66.875L367.232 68.1396C369.863 66.4612 372.951 65.6 376.551 65.6V64.1V62.6C372.45 62.6 368.788 63.5888 365.619 65.6104L366.426 66.875ZM376.551 64.1V65.6H403.176V64.1V62.6H376.551V64.1ZM403.176 64.1H401.676V71.675H403.176H404.676V64.1H403.176ZM403.176 71.675V70.175H376.551V71.675V73.175H403.176V71.675ZM376.551 71.675V70.175C373.889 70.175 371.509 70.8448 369.477 72.2379L370.326 73.475L371.174 74.7121C372.642 73.7052 374.412 73.175 376.551 73.175V71.675ZM370.326 73.475L369.502 72.2214C367.518 73.525 365.991 75.2847 364.927 77.468L366.276 78.125L367.624 78.782C368.46 77.0653 369.633 75.725 371.149 74.7286L370.326 73.475ZM366.276 78.125L364.927 77.468C363.865 79.6478 363.351 82.077 363.351 84.725H364.851H366.351C366.351 82.473 366.786 80.5022 367.624 78.782L366.276 78.125ZM364.851 84.725H363.351C363.351 87.3737 363.865 89.8219 364.921 92.0436L366.276 91.4L367.631 90.7564C366.786 88.9781 366.351 86.9763 366.351 84.725H364.851ZM366.276 91.4L364.921 92.0436C365.979 94.2718 367.499 96.0808 369.477 97.4371L370.326 96.2L371.174 94.9629C369.652 93.9192 368.472 92.5282 367.631 90.7564L366.276 91.4ZM370.326 96.2L369.502 97.4536C371.531 98.7869 373.902 99.425 376.551 99.425V97.925V96.425C374.399 96.425 372.62 95.9131 371.149 94.9464L370.326 96.2ZM376.551 97.925V99.425H395.601V97.925V96.425H376.551V97.925ZM395.601 97.925H397.101V88.4H395.601H394.101V97.925H395.601ZM395.601 88.4V86.9H374.076V88.4V89.9H395.601V88.4ZM374.076 88.4H375.576V80.825H374.076H372.576V88.4H374.076ZM374.076 80.825V82.325H403.176V80.825V79.325H374.076V80.825ZM403.176 80.825H401.676V105.5H403.176H404.676V80.825H403.176ZM459.88 105.5V107H461.38V105.5H459.88ZM452.38 105.5H450.88V107H452.38V105.5ZM452.38 94.175H453.88V92.675H452.38V94.175ZM423.505 94.175H422.005V95.675H423.505V94.175ZM423.505 86.525V85.025H422.005V86.525H423.505ZM452.38 86.525V88.025H453.88V86.525H452.38ZM452.38 71.675H453.88V70.175H452.38V71.675ZM426.205 73.475L426.976 74.7612L426.976 74.7612L426.205 73.475ZM421.405 78.275L422.682 79.0611L422.687 79.054L422.691 79.0467L421.405 78.275ZM419.605 105.5V107H421.105V105.5H419.605ZM412.03 105.5H410.53V107H412.03V105.5ZM413.605 76.85L412.227 76.2559L412.225 76.2625L412.222 76.2691L413.605 76.85ZM418.105 70.175L417.058 69.1007L417.051 69.1075L417.044 69.1143L418.105 70.175ZM424.78 65.75L425.361 67.133L425.367 67.1302L425.374 67.1273L424.78 65.75ZM459.88 64.1H461.38V62.6H459.88V64.1ZM459.88 105.5V104H452.38V105.5V107H459.88V105.5ZM452.38 105.5H453.88V94.175H452.38H450.88V105.5H452.38ZM452.38 94.175V92.675H423.505V94.175V95.675H452.38V94.175ZM423.505 94.175H425.005V86.525H423.505H422.005V94.175H423.505ZM423.505 86.525V88.025H452.38V86.525V85.025H423.505V86.525ZM452.38 86.525H453.88V71.675H452.38H450.88V86.525H452.38ZM452.38 71.675V70.175H432.88V71.675V73.175H452.38V71.675ZM432.88 71.675V70.175C430.172 70.175 427.678 70.8417 425.433 72.1888L426.205 73.475L426.976 74.7612C428.731 73.7083 430.687 73.175 432.88 73.175V71.675ZM426.205 73.475L425.433 72.1888C423.222 73.5154 421.445 75.2921 420.118 77.5033L421.405 78.275L422.691 79.0467C423.764 77.2579 425.188 75.8346 426.976 74.7612L426.205 73.475ZM421.405 78.275L420.127 77.4889C418.771 79.6919 418.105 82.1676 418.105 84.875H419.605H421.105C421.105 82.6823 421.638 80.7581 422.682 79.0611L421.405 78.275ZM419.605 84.875H418.105V105.5H419.605H421.105V84.875H419.605ZM419.605 105.5V104H412.03V105.5V107H419.605V105.5ZM412.03 105.5H413.53V84.875H412.03H410.53V105.5H412.03ZM412.03 84.875H413.53C413.53 82.2141 414.019 79.7376 414.988 77.4308L413.605 76.85L412.222 76.2691C411.091 78.9624 410.53 81.8359 410.53 84.875H412.03ZM413.605 76.85L414.982 77.4441C416.009 75.0623 417.404 72.9971 419.165 71.2357L418.105 70.175L417.044 69.1143C415.005 71.1529 413.4 73.5377 412.227 76.2559L413.605 76.85ZM418.105 70.175L419.151 71.2493C420.967 69.48 423.035 68.1099 425.361 67.133L424.78 65.75L424.199 64.367C421.525 65.4901 419.142 67.07 417.058 69.1007L418.105 70.175ZM424.78 65.75L425.374 67.1273C427.731 66.1104 430.229 65.6 432.88 65.6V64.1V62.6C429.831 62.6 426.928 63.1896 424.186 64.3727L424.78 65.75ZM432.88 64.1V65.6H459.88V64.1V62.6H432.88V64.1ZM459.88 64.1H458.38V105.5H459.88H461.38V64.1H459.88ZM508.588 105.5H507.088V107H508.588V105.5ZM506.637 96.05L505.25 96.6188L505.255 96.6327L505.261 96.6464L506.637 96.05ZM501.538 87.575L500.382 88.5309L500.382 88.5309L501.538 87.575ZM494.338 80.525L493.406 81.7006L493.406 81.7006L494.338 80.525ZM486.163 75.275L485.482 76.6118L485.492 76.6166L486.163 75.275ZM478.213 72.275L478.556 70.8149L476.713 70.3811V72.275H478.213ZM478.213 105.5V107H479.713V105.5H478.213ZM470.713 105.5H469.213V107H470.713V105.5ZM470.713 64.25V62.75H469.213V64.25H470.713ZM474.763 64.25H476.263V62.75H474.763V64.25ZM474.763 64.325H473.263V65.744L474.679 65.8227L474.763 64.325ZM483.313 66.125L482.817 67.5408L482.831 67.5457L482.845 67.5503L483.313 66.125ZM501.163 76.625L500.176 77.7552L500.186 77.7639L501.163 76.625ZM508.588 84.65L507.375 85.5335L510.088 89.2549V84.65H508.588ZM508.588 64.25V62.75H507.088V64.25H508.588ZM516.088 64.25H517.588V62.75H516.088V64.25ZM516.088 105.5V107H517.588V105.5H516.088ZM508.588 105.5H510.088C510.088 101.997 509.396 98.6436 508.014 95.4536L506.637 96.05L505.261 96.6464C506.479 99.4564 507.088 102.403 507.088 105.5H508.588ZM506.637 96.05L508.025 95.4812C506.717 92.2879 504.938 89.3329 502.693 86.6191L501.538 87.575L500.382 88.5309C502.437 91.0171 504.058 93.7121 505.25 96.6188L506.637 96.05ZM501.538 87.575L502.693 86.6191C500.476 83.938 498.001 81.5144 495.269 79.3494L494.338 80.525L493.406 81.7006C495.974 83.7356 498.299 86.012 500.382 88.5309L501.538 87.575ZM494.338 80.525L495.269 79.3494C492.545 77.1903 489.733 75.3831 486.833 73.9334L486.163 75.275L485.492 76.6166C488.192 77.9669 490.83 79.6597 493.406 81.7006L494.338 80.525ZM486.163 75.275L486.843 73.9383C484.004 72.4932 481.241 71.4467 478.556 70.8149L478.213 72.275L477.869 73.7351C480.284 74.3033 482.821 75.2568 485.482 76.6117L486.163 75.275ZM478.213 72.275H476.713V105.5H478.213H479.713V72.275H478.213ZM478.213 105.5V104H470.713V105.5V107H478.213V105.5ZM470.713 105.5H472.213V64.25H470.713H469.213V105.5H470.713ZM470.713 64.25V65.75H474.763V64.25V62.75H470.713V64.25ZM474.763 64.25H473.263V64.325H474.763H476.263V64.25H474.763ZM474.763 64.325L474.679 65.8227C477.217 65.9637 479.927 66.5294 482.817 67.5408L483.313 66.125L483.808 64.7092C480.698 63.6206 477.708 62.9863 474.846 62.8273L474.763 64.325ZM483.313 66.125L482.845 67.5503C485.782 68.5133 488.734 69.8662 491.7 71.6168L492.463 70.325L493.225 69.0332C490.091 67.1838 486.943 65.7366 483.78 64.6997L483.313 66.125ZM492.463 70.325L491.7 71.6168C494.668 73.3685 497.494 75.4139 500.176 77.7551L501.163 76.625L502.149 75.4949C499.331 73.0361 496.357 70.8815 493.225 69.0332L492.463 70.325ZM501.163 76.625L500.186 77.7639C502.899 80.089 505.294 82.6784 507.375 85.5335L508.588 84.65L509.8 83.7665C507.581 80.7216 505.026 77.961 502.139 75.4861L501.163 76.625ZM508.588 84.65H510.088V64.25H508.588H507.088V84.65H508.588ZM508.588 64.25V65.75H516.088V64.25V62.75H508.588V64.25ZM516.088 64.25H514.588V105.5H516.088H517.588V64.25H516.088ZM516.088 105.5V104H508.588V105.5V107H516.088V105.5ZM534.314 105.5V107H535.814V105.5H534.314ZM526.889 105.5H525.389V107H526.889V105.5ZM526.889 64.25V62.75H525.389V64.25H526.889ZM534.314 64.25H535.814V62.75H534.314V64.25ZM534.314 105.5V104H526.889V105.5V107H534.314V105.5ZM526.889 105.5H528.389V64.25H526.889H525.389V105.5H526.889ZM526.889 64.25V65.75H534.314V64.25V62.75H526.889V64.25ZM534.314 64.25H532.814V105.5H534.314H535.814V64.25H534.314ZM588.702 99.5L587.412 98.7334L587.406 98.7442L588.702 99.5ZM543.177 105.5H541.677V107H543.177V105.5ZM543.177 98V96.5H541.677V98H543.177ZM581.502 96.65L580.47 95.5611L580.455 95.575L580.441 95.5893L581.502 96.65ZM581.502 90.05L580.413 91.0816L580.441 91.111L580.47 91.1389L581.502 90.05ZM549.177 86.975L548.394 88.2549L548.402 88.2597L548.41 88.2643L549.177 86.975ZM544.827 70.325L546.116 71.0916L546.116 71.0916L544.827 70.325ZM549.177 65.9L548.41 64.6107L548.402 64.6153L548.394 64.6201L549.177 65.9ZM587.577 64.25H589.077V62.75H587.577V64.25ZM587.577 71.675V73.175H589.077V71.675H587.577ZM551.952 73.1L553.012 74.1607L553.012 74.1607L551.952 73.1ZM551.952 79.775L550.863 80.8066L550.891 80.836L550.92 80.8639L551.952 79.775ZM584.352 82.775L583.585 84.0643L583.585 84.0643L584.352 82.775ZM588.702 87.2L587.397 87.9404L587.405 87.9536L587.412 87.9666L588.702 87.2ZM590.352 93.35H588.852C588.852 95.343 588.368 97.1261 587.412 98.7334L588.702 99.5L589.991 100.267C591.235 98.1739 591.852 95.857 591.852 93.35H590.352ZM588.702 99.5L587.406 98.7442C586.488 100.317 585.224 101.586 583.585 102.561L584.352 103.85L585.118 105.139C587.179 103.914 588.815 102.283 589.997 100.256L588.702 99.5ZM584.352 103.85L583.585 102.561C581.978 103.516 580.195 104 578.202 104V105.5V107C580.709 107 583.025 106.384 585.118 105.139L584.352 103.85ZM578.202 105.5V104H543.177V105.5V107H578.202V105.5ZM543.177 105.5H544.677V98H543.177H541.677V105.5H543.177ZM543.177 98V99.5H578.202V98V96.5H543.177V98ZM578.202 98V99.5C579.89 99.5 581.374 98.8986 582.562 97.7107L581.502 96.65L580.441 95.5893C579.829 96.2014 579.113 96.5 578.202 96.5V98ZM581.502 96.65L582.533 97.7389C583.78 96.5578 584.427 95.065 584.427 93.35H582.927H581.427C581.427 94.235 581.123 94.9422 580.47 95.5611L581.502 96.65ZM582.927 93.35H584.427C584.427 91.635 583.78 90.1422 582.533 88.9611L581.502 90.05L580.47 91.1389C581.123 91.7578 581.427 92.465 581.427 93.35H582.927ZM581.502 90.05L582.59 89.0184C581.409 87.7716 579.917 87.125 578.202 87.125V88.625V90.125C579.087 90.125 579.794 90.4284 580.413 91.0816L581.502 90.05ZM578.202 88.625V87.125H555.252V88.625V90.125H578.202V88.625ZM555.252 88.625V87.125C553.315 87.125 551.556 86.6446 549.943 85.6857L549.177 86.975L548.41 88.2643C550.497 89.5054 552.788 90.125 555.252 90.125V88.625ZM549.177 86.975L549.959 85.6951C548.371 84.725 547.094 83.428 546.116 81.7834L544.827 82.55L543.537 83.3166C544.759 85.372 546.382 87.025 548.394 88.2549L549.177 86.975ZM544.827 82.55L546.116 81.7834C545.16 80.1761 544.677 78.3929 544.677 76.4H543.177H541.677C541.677 78.907 542.293 81.2239 543.537 83.3166L544.827 82.55ZM543.177 76.4H544.677C544.677 74.4636 545.157 72.7043 546.116 71.0916L544.827 70.325L543.537 69.5584C542.296 71.6457 541.677 73.9364 541.677 76.4H543.177ZM544.827 70.325L546.116 71.0916C547.094 69.447 548.371 68.15 549.959 67.1799L549.177 65.9L548.394 64.6201C546.382 65.85 544.759 67.503 543.537 69.5584L544.827 70.325ZM549.177 65.9L549.943 67.1893C551.556 66.2304 553.315 65.75 555.252 65.75V64.25V62.75C552.788 62.75 550.497 63.3696 548.41 64.6107L549.177 65.9ZM555.252 64.25V65.75H587.577V64.25V62.75H555.252V64.25ZM587.577 64.25H586.077V71.675H587.577H589.077V64.25H587.577ZM587.577 71.675V70.175H555.252V71.675V73.175H587.577V71.675ZM555.252 71.675V70.175C553.572 70.175 552.099 70.8313 550.891 72.0393L551.952 73.1L553.012 74.1607C553.704 73.4687 554.431 73.175 555.252 73.175V71.675ZM551.952 73.1L550.891 72.0393C549.703 73.2273 549.102 74.7117 549.102 76.4H550.602H552.102C552.102 75.4883 552.4 74.7727 553.012 74.1607L551.952 73.1ZM550.602 76.4H549.102C549.102 78.0866 549.701 79.5801 550.863 80.8066L551.952 79.775L553.04 78.7434C552.402 78.0699 552.102 77.3134 552.102 76.4H550.602ZM551.952 79.775L550.92 80.8639C552.134 82.0142 553.598 82.625 555.252 82.625V81.125V79.625C554.405 79.625 553.669 79.3358 552.983 78.6861L551.952 79.775ZM555.252 81.125V82.625H578.202V81.125V79.625H555.252V81.125ZM578.202 81.125V82.625C580.195 82.625 581.978 83.1086 583.585 84.0643L584.352 82.775L585.118 81.4857C583.025 80.2414 580.709 79.625 578.202 79.625V81.125ZM584.352 82.775L583.585 84.0643C585.214 85.0328 586.477 86.3198 587.397 87.9404L588.702 87.2L590.006 86.4596C588.826 84.3802 587.189 82.7172 585.118 81.4857L584.352 82.775ZM588.702 87.2L587.412 87.9666C588.368 89.5739 588.852 91.357 588.852 93.35H590.352H591.852C591.852 90.843 591.235 88.5261 589.991 86.4334L588.702 87.2ZM645.329 105.5V107H646.829V105.5H645.329ZM637.829 105.5H636.329V107H637.829V105.5ZM637.829 94.175H639.329V92.675H637.829V94.175ZM608.954 94.175H607.454V95.675H608.954V94.175ZM608.954 86.525V85.025H607.454V86.525H608.954ZM637.829 86.525V88.025H639.329V86.525H637.829ZM637.829 71.675H639.329V70.175H637.829V71.675ZM611.654 73.475L612.426 74.7612L612.426 74.7612L611.654 73.475ZM606.854 78.275L608.131 79.0611L608.136 79.054L608.14 79.0467L606.854 78.275ZM605.054 105.5V107H606.554V105.5H605.054ZM597.479 105.5H595.979V107H597.479V105.5ZM599.054 76.85L597.677 76.2559L597.674 76.2625L597.671 76.2691L599.054 76.85ZM603.554 70.175L602.507 69.1007L602.5 69.1075L602.493 69.1143L603.554 70.175ZM610.229 65.75L610.81 67.133L610.816 67.1302L610.823 67.1273L610.229 65.75ZM645.329 64.1H646.829V62.6H645.329V64.1ZM645.329 105.5V104H637.829V105.5V107H645.329V105.5ZM637.829 105.5H639.329V94.175H637.829H636.329V105.5H637.829ZM637.829 94.175V92.675H608.954V94.175V95.675H637.829V94.175ZM608.954 94.175H610.454V86.525H608.954H607.454V94.175H608.954ZM608.954 86.525V88.025H637.829V86.525V85.025H608.954V86.525ZM637.829 86.525H639.329V71.675H637.829H636.329V86.525H637.829ZM637.829 71.675V70.175H618.329V71.675V73.175H637.829V71.675ZM618.329 71.675V70.175C615.621 70.175 613.127 70.8417 610.882 72.1888L611.654 73.475L612.426 74.7612C614.181 73.7083 616.136 73.175 618.329 73.175V71.675ZM611.654 73.475L610.882 72.1888C608.671 73.5154 606.894 75.2921 605.568 77.5033L606.854 78.275L608.14 79.0467C609.213 77.2579 610.637 75.8346 612.426 74.7612L611.654 73.475ZM606.854 78.275L605.576 77.4889C604.221 79.6919 603.554 82.1676 603.554 84.875H605.054H606.554C606.554 82.6823 607.087 80.7581 608.131 79.0611L606.854 78.275ZM605.054 84.875H603.554V105.5H605.054H606.554V84.875H605.054ZM605.054 105.5V104H597.479V105.5V107H605.054V105.5ZM597.479 105.5H598.979V84.875H597.479H595.979V105.5H597.479ZM597.479 84.875H598.979C598.979 82.2141 599.468 79.7376 600.437 77.4308L599.054 76.85L597.671 76.2691C596.54 78.9624 595.979 81.8359 595.979 84.875H597.479ZM599.054 76.85L600.431 77.4441C601.459 75.0623 602.853 72.9971 604.615 71.2357L603.554 70.175L602.493 69.1143C600.455 71.1529 598.849 73.5377 597.677 76.2559L599.054 76.85ZM603.554 70.175L604.601 71.2493C606.417 69.48 608.484 68.1099 610.81 67.133L610.229 65.75L609.648 64.367C606.974 65.4901 604.591 67.07 602.507 69.1007L603.554 70.175ZM610.229 65.75L610.823 67.1273C613.18 66.1104 615.678 65.6 618.329 65.6V64.1V62.6C615.28 62.6 612.377 63.1896 609.635 64.3727L610.229 65.75ZM618.329 64.1V65.6H645.329V64.1V62.6H618.329V64.1ZM645.329 64.1H643.829V105.5H645.329H646.829V64.1H645.329ZM678.962 105.5V107H680.462V105.5H678.962ZM671.462 105.5H669.962V107H671.462V105.5ZM671.462 71.675H672.962V70.175H671.462V71.675ZM651.587 71.675H650.087V73.175H651.587V71.675ZM651.587 64.25V62.75H650.087V64.25H651.587ZM698.762 64.25H700.262V62.75H698.762V64.25ZM698.762 71.675V73.175H700.262V71.675H698.762ZM678.962 71.675V70.175H677.462V71.675H678.962ZM678.962 105.5V104H671.462V105.5V107H678.962V105.5ZM671.462 105.5H672.962V71.675H671.462H669.962V105.5H671.462ZM671.462 71.675V70.175H651.587V71.675V73.175H671.462V71.675ZM651.587 71.675H653.087V64.25H651.587H650.087V71.675H651.587ZM651.587 64.25V65.75H698.762V64.25V62.75H651.587V64.25ZM698.762 64.25H697.262V71.675H698.762H700.262V64.25H698.762ZM698.762 71.675V70.175H678.962V71.675V73.175H698.762V71.675ZM678.962 71.675H677.462V105.5H678.962H680.462V71.675H678.962ZM712.439 105.5V107H713.939V105.5H712.439ZM705.014 105.5H703.514V107H705.014V105.5ZM705.014 64.25V62.75H703.514V64.25H705.014ZM712.439 64.25H713.939V62.75H712.439V64.25ZM712.439 105.5V104H705.014V105.5V107H712.439V105.5ZM705.014 105.5H706.514V64.25H705.014H703.514V105.5H705.014ZM705.014 64.25V65.75H712.439V64.25V62.75H705.014V64.25ZM712.439 64.25H710.939V105.5H712.439H713.939V64.25H712.439ZM769.452 95.225L768.114 94.5457L768.11 94.5542L769.452 95.225ZM762.852 102.725L763.668 103.983L763.676 103.978L763.684 103.973L762.852 102.725ZM729.777 102.725L728.945 103.973L728.957 103.981L728.97 103.99L729.777 102.725ZM723.102 95.225L721.756 95.8873L721.762 95.9002L721.769 95.913L723.102 95.225ZM723.102 74.45L721.769 73.762L721.764 73.7706L721.76 73.7792L723.102 74.45ZM729.777 67.025L728.97 65.7604L728.96 65.7668L729.777 67.025ZM769.452 74.45L768.11 75.1208L768.114 75.1294L768.119 75.138L769.452 74.45ZM763.002 78.2L764.369 77.5845L764.369 77.5845L763.002 78.2ZM759.027 73.475L758.162 74.7005L758.182 74.7148L758.203 74.7286L759.027 73.475ZM733.602 73.475L734.442 74.7174L734.45 74.7121L733.602 73.475ZM729.627 78.2L728.272 77.5564L728.265 77.5704L728.259 77.5845L729.627 78.2ZM729.627 91.4L728.259 92.0155L728.265 92.0296L728.272 92.0436L729.627 91.4ZM733.602 96.2L732.737 97.4255L732.745 97.4313L732.753 97.4371L733.602 96.2ZM759.027 96.2L758.178 94.9629L758.17 94.9687L758.162 94.9745L759.027 96.2ZM763.002 91.4L764.369 92.0155L764.369 92.0155L763.002 91.4ZM771.852 84.8H770.352C770.352 88.3822 769.599 91.6219 768.114 94.5457L769.452 95.225L770.789 95.9043C772.504 92.5281 773.352 88.8178 773.352 84.8H771.852ZM769.452 95.225L768.11 94.5542C766.675 97.4236 764.65 99.7235 762.02 101.477L762.852 102.725L763.684 103.973C766.754 101.926 769.128 99.2264 770.793 95.8958L769.452 95.225ZM762.852 102.725L762.035 101.467C759.456 103.141 756.422 104 752.877 104V105.5V107C756.931 107 760.547 106.009 763.668 103.983L762.852 102.725ZM752.877 105.5V104H739.827V105.5V107H752.877V105.5ZM739.827 105.5V104C736.281 104 733.217 103.141 730.583 101.46L729.777 102.725L728.97 103.99C732.136 106.009 735.772 107 739.827 107V105.5ZM729.777 102.725L730.609 101.477C727.974 99.7208 725.92 97.4152 724.434 94.537L723.102 95.225L721.769 95.913C723.483 99.2348 725.879 101.929 728.945 103.973L729.777 102.725ZM723.102 95.225L724.447 94.5627C723.007 91.6354 722.277 88.3896 722.277 84.8H720.777H719.277C719.277 88.8104 720.096 92.5146 721.756 95.8873L723.102 95.225ZM720.777 84.8H722.277C722.277 81.21 723.007 77.993 724.443 75.1208L723.102 74.45L721.76 73.7792C720.096 77.107 719.277 80.7899 719.277 84.8H720.777ZM723.102 74.45L724.434 75.138C725.918 72.2632 727.968 69.9873 730.593 68.2832L729.777 67.025L728.96 65.7668C725.885 67.7627 723.485 70.4368 721.769 73.762L723.102 74.45ZM729.777 67.025L730.583 68.2896C733.217 66.6092 736.281 65.75 739.827 65.75V64.25V62.75C735.772 62.75 732.136 63.7408 728.97 65.7604L729.777 67.025ZM739.827 64.25V65.75H752.877V64.25V62.75H739.827V64.25ZM752.877 64.25V65.75C756.422 65.75 759.456 66.6093 762.035 68.2832L762.852 67.025L763.668 65.7668C760.547 63.7407 756.931 62.75 752.877 62.75V64.25ZM762.852 67.025L762.035 68.2832C764.656 69.9846 766.677 72.2548 768.11 75.1208L769.452 74.45L770.793 73.7792C769.126 70.4452 766.747 67.7654 763.668 65.7668L762.852 67.025ZM769.452 74.45L768.119 75.138C769.599 78.0067 770.352 81.2176 770.352 84.8H771.852H773.352C773.352 80.7824 772.504 77.0933 770.784 73.762L769.452 74.45ZM764.352 84.8H765.852C765.852 82.208 765.364 79.7956 764.369 77.5845L763.002 78.2L761.634 78.8155C762.439 80.6044 762.852 82.592 762.852 84.8H764.352ZM763.002 78.2L764.369 77.5845C763.358 75.3373 761.85 73.5357 759.85 72.2214L759.027 73.475L758.203 74.7286C759.703 75.7143 760.845 77.0627 761.634 78.8155L763.002 78.2ZM759.027 73.475L759.892 72.2495C757.901 70.8445 755.537 70.175 752.877 70.175V71.675V73.175C755.016 73.175 756.752 73.7055 758.162 74.7005L759.027 73.475ZM752.877 71.675V70.175H739.827V71.675V73.175H752.877V71.675ZM739.827 71.675V70.175C737.165 70.175 734.785 70.8448 732.753 72.2379L733.602 73.475L734.45 74.7121C735.918 73.7052 737.688 73.175 739.827 73.175V71.675ZM733.602 73.475L732.761 72.2326C730.822 73.5445 729.327 75.3342 728.272 77.5564L729.627 78.2L730.981 78.8436C731.826 77.0658 732.981 75.7055 734.442 74.7174L733.602 73.475ZM729.627 78.2L728.259 77.5845C727.264 79.7956 726.777 82.208 726.777 84.8H728.277H729.777C729.777 82.592 730.189 80.6044 730.994 78.8155L729.627 78.2ZM728.277 84.8H726.777C726.777 87.392 727.264 89.8044 728.259 92.0155L729.627 91.4L730.994 90.7845C730.189 88.9956 729.777 87.008 729.777 84.8H728.277ZM729.627 91.4L728.272 92.0436C729.325 94.261 730.812 96.0673 732.737 97.4255L733.602 96.2L734.467 94.9745C732.991 93.9327 731.828 92.539 730.981 90.7564L729.627 91.4ZM733.602 96.2L732.753 97.4371C734.785 98.8302 737.165 99.5 739.827 99.5V98V96.5C737.688 96.5 735.918 95.9698 734.45 94.9629L733.602 96.2ZM739.827 98V99.5H752.877V98V96.5H739.827V98ZM752.877 98V99.5C755.537 99.5 757.901 98.8305 759.892 97.4255L759.027 96.2L758.162 94.9745C756.752 95.9695 755.016 96.5 752.877 96.5V98ZM759.027 96.2L759.875 97.4371C761.86 96.0761 763.361 94.2576 764.369 92.0155L763.002 91.4L761.634 90.7845C760.843 92.5424 759.693 93.9239 758.178 94.9629L759.027 96.2ZM763.002 91.4L764.369 92.0155C765.364 89.8044 765.852 87.392 765.852 84.8H764.352H762.852C762.852 87.008 762.439 88.9956 761.634 90.7845L763.002 91.4ZM818.036 105.5H816.536V107H818.036V105.5ZM816.086 96.05L814.698 96.6188L814.703 96.6327L814.709 96.6464L816.086 96.05ZM810.986 87.575L809.83 88.5309L809.83 88.5309L810.986 87.575ZM803.786 80.525L802.854 81.7006L802.854 81.7006L803.786 80.525ZM795.611 75.275L794.93 76.6118L794.94 76.6166L795.611 75.275ZM787.661 72.275L788.004 70.8149L786.161 70.3811V72.275H787.661ZM787.661 105.5V107H789.161V105.5H787.661ZM780.161 105.5H778.661V107H780.161V105.5ZM780.161 64.25V62.75H778.661V64.25H780.161ZM784.211 64.25H785.711V62.75H784.211V64.25ZM784.211 64.325H782.711V65.744L784.128 65.8227L784.211 64.325ZM792.761 66.125L792.265 67.5408L792.279 67.5457L792.293 67.5503L792.761 66.125ZM810.611 76.625L809.624 77.7552L809.635 77.7639L810.611 76.625ZM818.036 84.65L816.824 85.5335L819.536 89.2549V84.65H818.036ZM818.036 64.25V62.75H816.536V64.25H818.036ZM825.536 64.25H827.036V62.75H825.536V64.25ZM825.536 105.5V107H827.036V105.5H825.536ZM818.036 105.5H819.536C819.536 101.997 818.844 98.6436 817.462 95.4536L816.086 96.05L814.709 96.6464C815.927 99.4564 816.536 102.403 816.536 105.5H818.036ZM816.086 96.05L817.474 95.4812C816.165 92.2879 814.386 89.3329 812.142 86.6191L810.986 87.575L809.83 88.5309C811.886 91.0171 813.507 93.7121 814.698 96.6188L816.086 96.05ZM810.986 87.575L812.142 86.6191C809.925 83.938 807.449 81.5144 804.717 79.3494L803.786 80.525L802.854 81.7006C805.422 83.7356 807.747 86.012 809.83 88.5309L810.986 87.575ZM803.786 80.525L804.717 79.3494C801.993 77.1903 799.181 75.3831 796.282 73.9334L795.611 75.275L794.94 76.6166C797.64 77.9669 800.279 79.6597 802.854 81.7006L803.786 80.525ZM795.611 75.275L796.291 73.9383C793.453 72.4932 790.69 71.4467 788.004 70.8149L787.661 72.275L787.317 73.7351C789.732 74.3033 792.269 75.2568 794.93 76.6117L795.611 75.275ZM787.661 72.275H786.161V105.5H787.661H789.161V72.275H787.661ZM787.661 105.5V104H780.161V105.5V107H787.661V105.5ZM780.161 105.5H781.661V64.25H780.161H778.661V105.5H780.161ZM780.161 64.25V65.75H784.211V64.25V62.75H780.161V64.25ZM784.211 64.25H782.711V64.325H784.211H785.711V64.25H784.211ZM784.211 64.325L784.128 65.8227C786.665 65.9637 789.376 66.5294 792.265 67.5408L792.761 66.125L793.256 64.7092C790.146 63.6206 787.157 62.9863 784.294 62.8273L784.211 64.325ZM792.761 66.125L792.293 67.5503C795.231 68.5133 798.182 69.8662 801.148 71.6168L801.911 70.325L802.673 69.0332C799.539 67.1838 796.391 65.7366 793.228 64.6997L792.761 66.125ZM801.911 70.325L801.148 71.6168C804.117 73.3685 806.942 75.4139 809.624 77.7551L810.611 76.625L811.597 75.4949C808.78 73.0361 805.805 70.8815 802.673 69.0332L801.911 70.325ZM810.611 76.625L809.635 77.7639C812.347 80.089 814.743 82.6784 816.824 85.5335L818.036 84.65L819.248 83.7665C817.029 80.7216 814.474 77.961 811.587 75.4861L810.611 76.625ZM818.036 84.65H819.536V64.25H818.036H816.536V84.65H818.036ZM818.036 64.25V65.75H825.536V64.25V62.75H818.036V64.25ZM825.536 64.25H824.036V105.5H825.536H827.036V64.25H825.536ZM825.536 105.5V104H818.036V105.5V107H825.536V105.5Z" fill="#2664AF" mask="url(#path-1-outside-1_15_46)"/>
<path fill-rule="evenodd" clip-rule="evenodd" d="M127.818 0.17065C118.044 0.993242 107.137 4.21302 98.7502 8.7514C88.9864 14.0353 79.6358 21.6752 72.9254 29.8519C69.0022 34.6325 69.0487 34.729 73.2589 30.5451C79.1126 24.7286 83.7102 21.1796 90.3111 17.3814C97.035 13.5122 105.995 10.4069 113.816 9.23442L118.066 8.59726L124.255 8.81283C127.795 8.93606 131.648 9.29699 133.257 9.65678C158.324 15.2585 175.175 35.1693 178.291 62.8696C178.901 68.2913 178.547 78.9537 177.568 84.6172C172.222 115.548 149.164 142.143 121.067 149.784C113.357 151.88 103.359 152.435 95.7497 151.188C84.8486 149.402 74.4306 143.969 66.3403 135.853L62.998 132.5L64.2774 134.364C66.2012 137.167 71.8411 143.093 75.1417 145.779C83.0951 152.252 93.1617 156.724 103.626 158.432C108.244 159.186 118.032 159.19 122.92 158.441C142.102 155.5 160.343 144.63 173.653 128.21C193.973 103.141 200.408 69.6201 190.26 41.6944C181.746 18.2631 162.039 2.67162 137.945 0.304187C134.331 -0.0506412 130.976 -0.0948988 127.818 0.17065Z" fill="#F89C34"/>
<path fill-rule="evenodd" clip-rule="evenodd" d="M83.6889 36.3337C80.2262 36.8424 76.2415 39.541 74.7816 42.3659C72.5461 46.6921 73.2038 54.3256 76.0926 57.5839C76.3334 57.8551 76.5301 58.2107 76.5301 58.3734C76.5301 58.5365 76.7766 58.9074 77.0774 59.1974C77.8834 59.9738 78.4832 60.6762 79.6801 62.246C81.079 64.0807 84.658 67.5577 85.1478 67.5577C85.358 67.5577 85.6247 67.0306 85.7405 66.386C86.1111 64.3197 86.9755 61.866 87.3883 61.7079C87.6088 61.6233 87.7889 61.3692 87.7889 61.1433C87.7889 60.5422 90.2067 58.555 92.0003 57.6817C92.8544 57.2658 94.7303 56.6465 96.1686 56.305L98.7844 55.6845L120.417 55.6867L142.05 55.6885L142.875 56.2335C143.329 56.5328 143.976 57.118 144.312 57.5333C145.196 58.624 145.787 58.2232 146.901 55.7773C148.765 51.6879 154.548 40.4378 155.052 39.9213C155.63 39.3286 155.314 38.5755 153.953 37.3007L152.563 36L119.004 36.0381C100.545 36.0591 84.654 36.1922 83.6889 36.3337ZM103.426 60.0766C100.836 60.2638 98.5689 60.7912 97.9687 61.3464C97.8052 61.4973 97.4974 61.6211 97.2845 61.6211C96.5214 61.6211 94.1176 63.3624 93.1594 64.6094C92.6224 65.3083 92.0178 66.5947 91.8161 67.4683L91.449 69.0565L91.9931 70.7284C92.2921 71.6483 92.9733 72.9715 93.5068 73.6692C94.5726 75.0634 100.196 79.4786 105.146 82.8075C105.834 83.2703 106.444 83.7542 106.501 83.8833C106.559 84.0123 106.738 84.1176 106.901 84.1176C107.359 84.1176 114.028 89.2403 117.679 92.3976C118.077 92.7413 119.005 93.5146 119.741 94.1161C120.478 94.7176 122.35 96.4551 123.903 97.9771C125.455 99.499 127.061 100.873 127.471 101.032C128.675 101.496 132.33 101.4 134.206 100.855L135.942 100.35L137.249 99.0313C137.968 98.3054 138.838 97.0784 139.181 96.3045C140.07 94.3014 140.224 90.9353 139.552 88.1945C138.771 85.0097 137.497 83.4652 131.626 78.58C131.167 78.1982 130.51 77.6192 130.166 77.2934C129.822 76.9678 127.711 75.2699 125.475 73.5205C123.238 71.7708 121.08 70.0651 120.679 69.7295C120.277 69.3943 119.894 69.1199 119.828 69.1199C119.678 69.1199 114.705 65.4267 114.059 64.8368C113.589 64.4069 108.938 61.0255 108.185 60.5665C107.308 60.0313 105.965 59.8932 103.426 60.0766ZM144.973 94.8191L144.865 97.7093L143.995 99.479C142.39 102.744 139.902 104.636 135.795 105.716L133.606 106.291L102.302 106.296L70.9977 106.302L70.5317 105.755C70.2753 105.454 69.7461 104.505 69.3552 103.646C68.7256 102.261 66.7062 99.4218 66.1802 99.1819C66.072 99.1325 65.5065 98.662 64.9236 98.1364C63.1031 96.4948 59.2026 94.8263 55.1072 93.9371C51.5016 93.154 47.9913 92.6329 47.3871 92.791C46.8254 92.9375 46.5802 93.4912 47.0765 93.4912C47.4559 93.4912 48.7144 95.5127 50.0101 98.2036C51.1047 100.477 52.0207 103.22 52.3488 105.208C52.4338 105.724 52.7788 107.762 53.1153 109.739C53.4872 111.923 53.8021 115.691 53.9188 119.349C54.0498 123.464 54.2296 125.465 54.4883 125.679C55.0177 126.118 142.585 126.101 145.283 125.662C147.803 125.251 149.944 124.13 152.207 122.037C154.302 120.099 155.449 117.832 155.963 114.608L156.309 112.446L155.792 110.077C155.312 107.873 154.474 105.438 153.687 103.958C152.711 102.125 152.631 101.992 150.471 98.6466C149.457 97.0747 147.906 94.986 147.107 94.1161C146.87 93.8583 146.429 93.2606 146.126 92.7882C145.823 92.3157 145.464 91.9289 145.328 91.9289C145.192 91.9289 145.033 93.2297 144.973 94.8191Z" fill="#2664AF"/>
<path d="M54.8868 36.6387C56.6727 36.8547 58.6422 37.3886 60.5831 38.334C73.0921 44.4276 66.9451 62.0593 58.7911 73.334C59.0517 74.0108 60.1966 75.4574 62.6944 75.832C65.3117 76.2246 69.5648 79.4239 71.4386 80.9854C74.1449 83.7961 74.4155 94.8815 74.9151 99.2539C73.8217 98.5766 69.643 93.0084 65.8585 91.1348C62.4592 89.4518 60.8722 89.001 57.3848 88.4805L52.0763 87.8555H28.0294V121.74C28.9663 122.573 30.6839 124.738 30.0597 126.736H10.418C8.7612 126.736 7.41805 125.393 7.41805 123.736V46.1641L1.34774 42.1387C-1.12921 40.4963 0.0331494 36.639 3.00496 36.6387H54.8868ZM28.9054 56.1875C27.6627 56.1875 26.6554 57.1949 26.6554 58.4375V74.0322C26.6556 76.0788 29.1665 77.0624 30.5567 75.5605L44.9874 59.9658L45.1055 59.8281C46.2558 58.3813 45.2375 56.1875 43.336 56.1875H28.9054Z" fill="#F89C34"/>
<path d="M182.248 8.25C206.827 38.6732 233.248 105.75 155.248 156.75C197.998 139.5 248.248 84 182.248 8.25Z" fill="#2664AF"/>
</svg>
