<svg width="24" height="24" viewBox="0 0 24 24" fill="none" xmlns="http://www.w3.org/2000/svg">
<path d="M13 1C13 0.734783 13.1054 0.480429 13.2929 0.292893C13.4804 0.105357 13.7348 -3.57437e-07 14 -3.57437e-07C16.6513 0.00291124 19.1931 1.05741 21.0679 2.93215C22.9426 4.80688 23.9971 7.34873 24 10C24 10.2652 23.8946 10.5196 23.7071 10.7071C23.5196 10.8946 23.2652 11 23 11C22.7348 11 22.4804 10.8946 22.2929 10.7071C22.1054 10.5196 22 10.2652 22 10C21.9976 7.879 21.154 5.84555 19.6542 4.34578C18.1544 2.846 16.121 2.00238 14 2C13.7348 2 13.4804 1.89464 13.2929 1.70711C13.1054 1.51957 13 1.26522 13 1ZM14 6C15.0609 6 16.0783 6.42143 16.8284 7.17157C17.5786 7.92172 18 8.93914 18 10C18 10.2652 18.1054 10.5196 18.2929 10.7071C18.4804 10.8946 18.7348 11 19 11C19.2652 11 19.5196 10.8946 19.7071 10.7071C19.8946 10.5196 20 10.2652 20 10C19.9984 8.40919 19.3658 6.88399 18.2409 5.75911C17.116 4.63424 15.5908 4.00159 14 4C13.7348 4 13.4804 4.10536 13.2929 4.29289C13.1054 4.48043 13 4.73478 13 5C13 5.26522 13.1054 5.51957 13.2929 5.70711C13.4804 5.89464 13.7348 6 14 6ZM23.093 16.739C23.6725 17.3201 23.9979 18.1073 23.9979 18.928C23.9979 19.7487 23.6725 20.5359 23.093 21.117L22.183 22.166C13.993 30.007 -5.937 10.082 1.783 1.866L2.933 0.866C3.51477 0.302677 4.29493 -0.00895128 5.1047 -0.00146552C5.91448 0.00602025 6.68874 0.332018 7.26 0.906C7.291 0.937 9.144 3.344 9.144 3.344C9.69383 3.92163 9.9999 4.68893 9.9986 5.4864C9.9973 6.28388 9.68871 7.05017 9.137 7.626L7.979 9.082C8.61985 10.6391 9.56206 12.0542 10.7515 13.2461C11.941 14.4379 13.3542 15.383 14.91 16.027L16.375 14.862C16.9509 14.3107 17.7171 14.0025 18.5143 14.0014C19.3115 14.0003 20.0785 14.3063 20.656 14.856C20.656 14.856 23.062 16.708 23.093 16.739ZM21.717 18.193C21.717 18.193 19.324 16.352 19.293 16.321C19.087 16.1167 18.8086 16.0021 18.5185 16.0021C18.2284 16.0021 17.95 16.1167 17.744 16.321C17.717 16.349 15.7 17.956 15.7 17.956C15.5641 18.0642 15.4023 18.1351 15.2306 18.1618C15.059 18.1884 14.8833 18.1699 14.721 18.108C12.7055 17.3576 10.8747 16.1827 9.35283 14.6631C7.83093 13.1434 6.6534 11.3144 5.9 9.3C5.8332 9.13546 5.81142 8.95609 5.8369 8.78034C5.86239 8.60459 5.93421 8.4388 6.045 8.3C6.045 8.3 7.652 6.282 7.679 6.256C7.88327 6.04999 7.99788 5.77162 7.99788 5.4815C7.99788 5.19138 7.88327 4.91301 7.679 4.707C7.648 4.677 5.807 2.282 5.807 2.282C5.5979 2.09451 5.325 1.9941 5.04425 2.00135C4.76349 2.0086 4.49614 2.12296 4.297 2.321L3.147 3.321C-2.495 10.105 14.776 26.418 20.721 20.8L21.632 19.75C21.8455 19.5523 21.9737 19.2793 21.9896 18.9887C22.0054 18.6981 21.9077 18.4128 21.717 18.193Z" fill="white"/>
</svg>
