<svg width="16" height="14" viewBox="0 0 16 14" fill="none" xmlns="http://www.w3.org/2000/svg">
<path d="M9 0.25C8.5858 0.25 8.25 0.58579 8.25 1C8.25 1.41421 8.5858 1.75 9 1.75H15C15.4142 1.75 15.75 1.41421 15.75 1C15.75 0.58579 15.4142 0.25 15 0.25H9ZM1 6.25C0.58579 6.25 0.25 6.5858 0.25 7C0.25 7.4142 0.58579 7.75 1 7.75H15C15.4142 7.75 15.75 7.4142 15.75 7C15.75 6.5858 15.4142 6.25 15 6.25H1ZM5 12.25C4.58579 12.25 4.25 12.5858 4.25 13C4.25 13.4142 4.58579 13.75 5 13.75H15C15.4142 13.75 15.75 13.4142 15.75 13C15.75 12.5858 15.4142 12.25 15 12.25H5Z" fill="white"/>
</svg>
