<svg width="24" height="24" viewBox="0 0 24 24" fill="none" xmlns="http://www.w3.org/2000/svg">
<g clip-path="url(#clip0_5_35)">
<path d="M23.498 6.186C23.222 5.147 22.409 4.328 21.376 4.05C19.505 3.546 12 3.546 12 3.546C12 3.546 4.49499 3.546 2.62299 4.05C1.59099 4.328 0.777992 5.146 0.501992 6.186C-7.62939e-06 8.07 -7.62939e-06 12 -7.62939e-06 12C-7.62939e-06 12 -7.62939e-06 15.93 0.501992 17.814C0.777992 18.853 1.59099 19.672 2.62399 19.95C4.49499 20.454 12 20.454 12 20.454C12 20.454 19.505 20.454 21.377 19.95C22.409 19.672 23.222 18.854 23.499 17.814C24 15.93 24 12 24 12C24 12 24 8.07 23.498 6.186ZM9.54599 15.569V8.431L15.818 12L9.54599 15.569Z" fill="white"/>
</g>
<defs>
<clipPath id="clip0_5_35">
<rect width="24" height="24" fill="white"/>
</clipPath>
</defs>
</svg>
